# Alias OBJ Model File
# Exported from SketchUp, (c) 2000-2012 Trimble Navigation Limited
# File units = meters

mtllib CLOISON 1x2.5m HT.mtl

g Mesh1 Group1 Model

usemtl MeshFabric_B01_18cm1
v 0 0 -0
vt 5.08025 0
vn 0 0 1
v 1 0 -0
vt 10.6358 0
v 1 2.5 -0
vt 10.6358 13.8889
v 0 2.5 -0
vt 5.08025 13.8889
f 1/1/1 2/2/1 3/3/1 4/4/1 

vt -10.6358 1.72794
vn 0 -1 -0
vt -5.08025 1.72794
v 0 0 -0.06
vt -5.08025 2.06128
v 1 0 -0.06
vt -10.6358 2.06128
f 2/5/2 1/6/2 5/7/2 6/8/2 

vt -1.72794 0
vn -1 0 -0
vt -1.72794 13.8889
v 0 2.5 -0.06
vt -2.06128 13.8889
vt -2.06128 0
f 1/9/3 4/10/3 7/11/3 5/12/3 

vt 5.08025 1.72794
vn 0 1 -0
vt 10.6358 1.72794
v 1 2.5 -0.06
vt 10.6358 2.06128
vt 5.08025 2.06128
f 4/13/4 3/14/4 8/15/4 7/16/4 

vt 1.72794 13.8889
vn 1 0 -0
vt 1.72794 0
vt 2.06128 0
vt 2.06128 13.8889
f 3/17/5 2/18/5 6/19/5 8/20/5 

vt -10.6358 0
vn 0 0 -1
vt -5.08025 0
vt -5.08025 13.8889
vt -10.6358 13.8889
f 6/21/6 5/22/6 7/23/6 8/24/6 

