# Alias OBJ Model File
# Exported from SketchUp, (c) 2000-2012 Trimble Navigation Limited
# File units = meters

mtllib POIDUM BLANC 50x50x50cm HT.mtl

g Mesh1 Group1 Model

usemtl Laminate_D02_120cm_2
v 0 0 -0
vt 4.1212 0
vn 0 0 1
v 0.5 0 -0
vt 4.53786 0
v 0.5 0.5 -0
vt 4.53786 0.725623
v 0 0.5 -0
vt 4.1212 0.725623
f 1/1/1 2/2/1 3/3/1 4/4/1 

v 0 0 -0.5
vt -4.1212 -1.95388
vn 0 -1 -0
v 0.5 0 -0.5
vt -4.53786 -1.95388
vt -4.53786 -2.6795
vt -4.1212 -2.6795
f 5/5/2 6/6/2 2/7/2 1/8/2 

vt -4.53786 0
vn 0 0 -1
vt -4.1212 0
v 0 0.5 -0.5
vt -4.1212 0.725623
v 0.5 0.5 -0.5
vt -4.53786 0.725623
f 6/9/3 5/10/3 7/11/3 8/12/3 

vt 1.12195 0
vn -1 0 -0
vt 1.53862 0
vt 1.53862 0.725623
vt 1.12195 0.725623
f 5/13/4 1/14/4 4/15/4 7/16/4 

vt 4.53786 -1.95388
vn 0 1 -0
vt 4.1212 -1.95388
vt 4.1212 -2.6795
vt 4.53786 -2.6795
f 8/17/5 7/18/5 4/19/5 3/20/5 

vt -1.53862 0
vn 1 0 -0
vt -1.12195 0
vt -1.12195 0.725623
vt -1.53862 0.725623
f 2/21/6 6/22/6 8/23/6 3/24/6 

